<mxfile host="app.diagrams.net" modified="2020-12-16T12:34:20.282Z" agent="5.0 (Windows NT 10.0; Win64; x64) AppleWebKit/537.36 (KHTML, like Gecko) Chrome/87.0.4280.88 Safari/537.36 Edg/87.0.664.60" etag="7Hp5Ye9xC1tgJBn1MHRb" version="14.0.3" type="github">
  <diagram id="0ntqZZvW9Y4HP-CUcbOq" name="Page-1">
    <mxGraphModel dx="2032" dy="1165" grid="1" gridSize="10" guides="1" tooltips="1" connect="1" arrows="1" fold="1" page="1" pageScale="1" pageWidth="827" pageHeight="1169" math="0" shadow="0">
      <root>
        <mxCell id="0" />
        <mxCell id="1" parent="0" />
        <mxCell id="OqhXeZfUzXwnRQt4lZv1-3" value="" style="shape=cube;whiteSpace=wrap;html=1;boundedLbl=1;backgroundOutline=1;darkOpacity=0.05;darkOpacity2=0.1;rotation=90;size=50;" vertex="1" parent="1">
          <mxGeometry x="-370" y="320" width="230" height="70" as="geometry" />
        </mxCell>
        <mxCell id="OqhXeZfUzXwnRQt4lZv1-4" value="" style="rounded=1;whiteSpace=wrap;html=1;" vertex="1" parent="1">
          <mxGeometry x="-780" y="200" width="270" height="300" as="geometry" />
        </mxCell>
        <mxCell id="OqhXeZfUzXwnRQt4lZv1-5" value="Transform Models" style="rounded=1;whiteSpace=wrap;html=1;" vertex="1" parent="1">
          <mxGeometry x="-460" y="325" width="120" height="60" as="geometry" />
        </mxCell>
      </root>
    </mxGraphModel>
  </diagram>
</mxfile>
